<svg version="1.0" xmlns="http://www.w3.org/2000/svg" width="233" height="224.333"><filter id="a"><feGaussianBlur stdDeviation="4"/></filter><g filter="url(#a)"><path fill="#AFAFB0" d="M11 83.34s3.792-60.198 63.998-69.008h115.669v185H11V83.34z"/></g><path fill="#99A9D0" d="M7.333 78.167s4.004-61.5 67.56-70.5H197v189H7.333v-118.5z"/><path fill="#FFF" d="M14.833 80.444S18.517 23.5 76.991 15.166h112.342v175h-174.5V80.444z"/><radialGradient id="b" cx="109.667" cy="176.333" r="131.617" gradientUnits="userSpaceOnUse"><stop offset="0" stop-color="#6f8dc8"/><stop offset="1" stop-color="#3561aa"/></radialGradient><path fill="url(#b)" d="M21.333 82.222s3.41-52.389 57.528-60.056h103.972v161h-161.5V82.222z"/><linearGradient id="c" gradientUnits="userSpaceOnUse" x1="101.796" y1="21.818" x2="102.573" y2="130.42"><stop offset="0" stop-color="#cad4e8"/><stop offset="1" stop-color="#4b71b3"/></linearGradient><path fill="url(#c)" d="M21.583 131V77.75S23.84 30 76.489 22h106.303v83.25l-131.124 15c.001 0-19.053 5.5-30.085 10.75z"/><g filter="url(#a)"><path fill="#B5B6B7" d="M84.833 42.667l143.5 10-13 174.5-159.5-23z"/></g><linearGradient id="d" gradientUnits="userSpaceOnUse" x1="48.834" y1="125.916" x2="221.333" y2="125.916"><stop offset="0" stop-color="#fff"/><stop offset="1" stop-color="#eaf4f8"/></linearGradient><path fill="url(#d)" d="M77.833 33.667l143.5 10-13 174.5-159.5-23z"/><g><linearGradient id="e" gradientUnits="userSpaceOnUse" x1="79.328" y1="118.587" x2="199.127" y2="118.587"><stop offset="0" stop-color="#768ec8"/><stop offset="1" stop-color="#1e4999"/></linearGradient><path fill="url(#e)" d="M89.333 60.167l21 1.5-2.25 6.25h-5.25l-1.5 26 20-31.25 11 1.5-2.25 31.5 16-24.75-5.25.25 2.75-7.25 18.25 1.5-2 6.75h-3.5l-32 46.75-7-1.75.25-34.25-22.75 32.75-7-.75 2.25-48.25h-3l2.25-6.5zm109.794 8.685l-30.469-2.029-.647 9.728 30.469 2.029.647-9.728zm-1.918 24.098l-30.416-2.708-.864 9.711 30.416 2.708.864-9.711zm-2.75 23l-30.416-2.708-.864 9.711 30.416 2.708.864-9.711zm-1.212 23.762L83.96 127.566l-1.382 12.462 109.286 12.146 1.383-12.462zm-2.482 24.835L80.71 152.316l-1.382 12.462 110.055 12.23 1.382-12.461z"/></g></svg>